# xmcd
#
# Track frame offsets: 
#        150
#        12790
#        27912
#        42672
#        55777
#        68227
#        82337
#        96070
#        111070
#        124007
#
# Disc length: 1849 seconds
#
# Revision: 4
# Processed by: cddbd v1.5.2PL0 Copyright (c) Steve Scherf et al.
# Submitted via: ExactAudioCopy v1.0b3
#
DISCID=8107370a
DTITLE=Sawyer Brown - Greatest Hits
DYEAR=1990
DGENRE=Country
TTITLE0=Step That Step
TTITLE1=Heart Don't Fall Now
TTITLE2=Betty's Bein Bad
TTITLE3=The Race Is On
TTITLE4=When Love Comes Callin'
TTITLE5=Puttin' The Dark Back Into The Night
TTITLE6=Leona
TTITLE7=Used To Blue
TTITLE8=Out Goin' Cattin'
TTITLE9=Shakin'
EXTD=YEAR: 1990
EXTT0=
EXTT1=
EXTT2=
EXTT3=
EXTT4=
EXTT5=
EXTT6=
EXTT7=
EXTT8=
EXTT9=
PLAYORDER=
